<svg id="图层_1" data-name="图层 1" xmlns="http://www.w3.org/2000/svg" xmlns:xlink="http://www.w3.org/1999/xlink"
     viewBox="0 0 1920 1080">
  <defs>
    <style>
      .cls-1,.cls-10,.cls-11,.cls-12,.cls-13,.cls-14,.cls-15,.cls-16,.cls-17,.cls-18,.cls-19,.cls-20,.cls-21,.cls-22,.cls-5,.cls-6,.cls-7,.cls-8,.cls-9{fill:none;}.cls-2{fill:url(#未命名的渐变_7);}.cls-3{clip-path:url(#clip-path);}.cls-4,.cls-6{opacity:0.6;}.cls-10,.cls-11,.cls-12,.cls-13,.cls-14,.cls-15,.cls-16,.cls-17,.cls-18,.cls-19,.cls-20,.cls-21,.cls-22,.cls-5,.cls-6,.cls-7,.cls-8,.cls-9{stroke:#fff;stroke-miterlimit:10;}.cls-7{opacity:0.62;}.cls-8{opacity:0.65;}.cls-9{opacity:0.67;}.cls-10{opacity:0.69;}.cls-11{opacity:0.72;}.cls-12{opacity:0.74;}.cls-13{opacity:0.76;}.cls-14{opacity:0.79;}.cls-15{opacity:0.81;}.cls-16{opacity:0.84;}.cls-17{opacity:0.86;}.cls-18{opacity:0.88;}.cls-19{opacity:0.91;}.cls-20{opacity:0.93;}.cls-21{opacity:0.95;}.cls-22{opacity:0.98;}
    </style>
    <linearGradient id="未命名的渐变_7" x1="6.55" y1="-11.34" x2="1916.45" y2="1091.34" gradientUnits="userSpaceOnUse">
      <stop offset="0" stop-color="#54ccb0"/>
      <stop offset="1" stop-color="#4f69af"/>
    </linearGradient>
    <clipPath id="clip-path">
      <rect class="cls-1" width="1923" height="1080"/>
    </clipPath>
  </defs>
  <title>背景</title>
  <rect class="cls-2" width="1923" height="1080"/>
  <g class="cls-3">
    <g class="cls-4">
      <path class="cls-5" d="M-254.9,879.5s633.91,409.56,1282,70.56S2025.46,746.3,2025.46,746.3"/>
      <path class="cls-5" d="M-252,889.26S411,1262.1,1049.23,947.77s993.67-190.2,993.67-190.2"/>
      <path class="cls-5" d="M-249.08,899s692,336.11,1320.43,46.45,989-176.64,989-176.64"/>
      <path class="cls-5" d="M-246.17,908.79s721,299.39,1339.63,34.4,984.32-163.07,984.32-163.07"/>
      <path class="cls-5" d="M-243.26,918.55s750,262.67,1358.83,22.34,979.65-149.51,979.65-149.51"/>
      <path class="cls-5" d="M-240.35,928.31s779.07,225.95,1378,10.29,975-135.95,975-135.95"/>
      <path class="cls-5" d="M-237.44,938.07s808.1,189.22,1397.24-1.77,970.3-122.38,970.3-122.38"/>
      <path class="cls-5" d="M-234.53,947.83S602.6,1100.34,1181.91,934s965.63-108.82,965.63-108.82"/>
      <path class="cls-5" d="M-231.62,957.6S634.55,1073.38,1204,931.72s961-95.26,961-95.26"/>
      <path class="cls-5" d="M-228.71,967.36s895.2,79.06,1454.85-37.93,956.29-81.7,956.29-81.7"/>
      <path class="cls-5" d="M-225.8,977.12s924.23,42.34,1474.05-50S2199.86,859,2199.86,859"/>
      <path class="cls-5" d="M-222.9,986.88s953.27,5.61,1493.26-62,946.94-54.57,946.94-54.57"/>
      <path class="cls-5" d="M-220,996.64s982.3-31.11,1512.46-74.1,942.27-41,942.27-41"/>
      <path class="cls-5" d="M-217.08,1006.4s1011.33-67.83,1531.66-86.15,937.6-27.45,937.6-27.45"/>
      <path class="cls-5" d="M-214.17,1016.17S826.2,911.61,1336.7,918s932.93-13.88,932.93-13.88"/>
      <path class="cls-5" d="M-211.26,1025.93S858.14,884.65,1358.81,915.67s928.25-.32,928.25-.32"/>
      <path class="cls-5" d="M-208.35,1035.69s1098.43-178,1589.27-122.32,923.58,13.24,923.58,13.24"/>
      <path class="cls-5" d="M-205.44,1045.45S922,830.73,1403,911.08s918.91,26.81,918.91,26.81"/>
      <path class="cls-5" d="M-202.53,1055.21S954,803.77,1425.15,908.79s914.24,40.37,914.24,40.37"/>
      <path class="cls-5" d="M-199.62,1065S985.9,776.81,1447.26,906.5s909.56,53.93,909.56,53.93"/>
      <path class="cls-5" d="M-196.71,1074.74S1017.85,749.85,1469.37,904.2s904.89,67.49,904.89,67.49"/>
      <path class="cls-5" d="M-193.8,1084.5S1049.79,722.89,1491.49,901.91,2391.71,983,2391.71,983"/>
    </g>
    <path class="cls-6" d="M-144.73,749C719.59,790.5,396,938.78,1241.94,1148.9"/>
    <path class="cls-7" d="M-144.73,754.38c813.47,39.06,551.59,183,1344.94,399.79"/>
    <path class="cls-8" d="M-144.73,759.76C617.9,796.38,417.76,936,1158.48,1159.44"/>
    <path class="cls-9" d="M-144.73,765.14c711.79,34.18,573.39,169.44,1261.48,399.57"/>
    <path class="cls-10" d="M-144.73,770.53C516.22,802.26,439.56,933.19,1075,1170"/>
    <path class="cls-11" d="M-144.73,775.91c610.1,29.29,595.19,155.88,1178,399.35"/>
    <path class="cls-12" d="M-144.73,781.29c559.26,26.85,606.09,149.1,1136.29,399.23"/>
    <path class="cls-13" d="M-144.73,786.67c508.42,24.41,617,142.32,1094.57,399.12"/>
    <path class="cls-14" d="M-144.73,792.05c457.58,22,627.89,135.54,1052.84,399"/>
    <path class="cls-15" d="M-144.73,797.43C262,817,494.06,926.19,866.38,1196.34"/>
    <path class="cls-16" d="M-144.73,802.82c355.89,17.09,649.68,122,969.38,398.79"/>
    <path class="cls-17" d="M-144.73,808.2c305.05,14.65,660.58,115.19,927.65,398.68"/>
    <path class="cls-18" d="M-144.73,813.58C109.48,825.78,526.76,922,741.2,1212.15"/>
    <path class="cls-19" d="M-144.73,819c203.37,9.76,682.38,101.63,844.2,398.46"/>
    <path class="cls-20" d="M-144.73,824.34c152.53,7.32,693.28,94.85,802.47,398.35"/>
    <path class="cls-21" d="M-144.73,829.72C-43,834.61,559.45,917.79,616,1228"/>
    <path class="cls-22" d="M-144.73,835.1c50.84,2.44,715.08,81.29,719,398.12"/>
    <path class="cls-5" d="M-144.73,840.49s726,74.51,677.28,398"/>
  </g>
</svg>
